<?xml version="1.0" standalone="no"?>
<!DOCTYPE svg PUBLIC "-//W3C//DTD SVG 20010904//EN"
 "http://www.w3.org/TR/2001/REC-SVG-20010904/DTD/svg10.dtd">
<svg version="1.0" xmlns="http://www.w3.org/2000/svg"
 width="512.000000pt" height="512.000000pt" viewBox="0 0 512.000000 512.000000"
 preserveAspectRatio="xMidYMid meet">
<metadata>
Created by potrace 1.16, written by Peter Selinger 2001-2019
</metadata>
<g transform="translate(0.000000,512.000000) scale(0.100000,-0.100000)"
fill="#000000" stroke="none">
<path d="M0 2560 l0 -2560 1365 0 1365 0 0 990 0 990 -335 0 -335 0 0 400 0
400 334 0 334 0 4 408 c4 375 6 413 25 483 79 283 260 496 516 607 149 65 214
72 650 72 l387 0 0 -360 0 -360 -282 0 c-276 0 -284 -1 -333 -24 -29 -13 -69
-44 -92 -70 -70 -79 -73 -98 -73 -448 l0 -308 385 0 385 0 -5 -22 c-2 -13 -25
-183 -50 -378 -25 -195 -48 -365 -50 -377 l-5 -23 -330 0 -330 0 0 -990 0
-990 795 0 795 0 0 2560 0 2560 -2560 0 -2560 0 0 -2560z"/>
</g>
</svg>
