<?xml version="1.0" standalone="no"?>
<!DOCTYPE svg PUBLIC "-//W3C//DTD SVG 20010904//EN"
 "http://www.w3.org/TR/2001/REC-SVG-20010904/DTD/svg10.dtd">
<svg version="1.0" xmlns="http://www.w3.org/2000/svg"
 width="1200.000000pt" height="1182.000000pt" viewBox="0 0 1200.000000 1182.000000"
 preserveAspectRatio="xMidYMid meet">
<metadata>
Created by potrace 1.16, written by Peter Selinger 2001-2019
</metadata>
<g transform="translate(0.000000,1182.000000) scale(0.100000,-0.100000)"
fill="#000000" stroke="none">
<path d="M6002 11724 c-17 -11 -35 -14 -75 -9 -33 4 -76 1 -119 -9 -80 -19
-190 -19 -215 0 -27 20 -74 17 -129 -8 -41 -19 -67 -22 -159 -23 -100 0 -116
-3 -175 -29 -36 -17 -98 -52 -139 -79 -76 -51 -160 -89 -221 -102 -19 -4 -80
-27 -135 -52 -55 -24 -115 -51 -133 -59 -26 -11 -39 -29 -67 -90 -19 -42 -35
-86 -35 -98 0 -30 -42 -100 -63 -104 -10 -2 -17 3 -17 11 0 8 -7 18 -16 21
-22 8 -21 9 -28 -17 -3 -12 -21 -41 -41 -64 -21 -25 -35 -52 -35 -68 0 -38
-13 -58 -59 -89 -32 -22 -43 -39 -55 -80 -9 -28 -31 -76 -51 -106 -19 -30 -37
-69 -40 -87 -16 -107 -15 -103 -40 -103 -44 0 -55 -10 -55 -49 0 -20 4 -41 9
-46 5 -6 11 -21 13 -35 3 -21 12 -27 63 -40 57 -14 60 -17 57 -42 -3 -22 2
-30 24 -40 25 -12 26 -14 20 -73 -4 -42 0 -99 13 -175 14 -81 17 -119 9 -133
-18 -35 -22 -160 -6 -198 9 -19 20 -52 26 -74 16 -59 47 -159 81 -258 29 -83
38 -127 26 -127 -3 0 -16 7 -29 15 -13 8 -47 16 -75 16 -45 1 -57 -2 -77 -24
-13 -14 -24 -34 -23 -44 0 -11 3 -13 6 -5 4 10 10 10 30 -3 34 -23 73 -12 73
19 0 29 20 38 44 21 14 -11 15 -18 7 -33 -15 -28 -3 -34 21 -10 18 18 21 18
44 3 13 -8 24 -12 24 -8 1 5 8 -4 16 -19 8 -16 23 -28 34 -28 31 0 105 -56
107 -81 1 -12 6 -25 11 -28 9 -6 62 -95 62 -104 0 -3 -10 -8 -22 -12 -20 -6
-20 -8 -5 -12 20 -5 22 -26 4 -41 -10 -8 -19 -3 -40 23 -15 19 -27 38 -27 44
0 5 -9 13 -20 16 -11 3 -20 11 -20 16 0 23 -82 75 -100 64 -13 -8 -13 -35 -1
-35 5 0 13 -9 16 -20 5 -15 15 -20 45 -20 48 0 58 -14 26 -35 -14 -9 -28 -26
-32 -37 -3 -11 -21 -35 -39 -54 -30 -31 -33 -37 -24 -67 5 -17 9 -51 9 -75 0
-56 24 -102 51 -99 16 1 24 -7 34 -38 16 -45 3 -65 -26 -39 -8 7 -21 14 -27
14 -6 0 -19 14 -27 31 -9 17 -18 29 -21 26 -13 -12 91 -157 112 -157 9 0 13 4
9 9 -3 5 -1 12 5 16 5 3 10 28 10 54 0 46 2 49 30 54 23 5 46 -3 102 -34 40
-22 80 -44 88 -48 10 -5 16 -27 18 -62 2 -33 10 -62 21 -74 9 -11 22 -32 29
-47 9 -22 9 -26 -2 -22 -16 6 -33 -15 -20 -25 5 -3 10 -13 10 -21 1 -8 14 -59
28 -113 33 -119 34 -123 47 -220 5 -43 13 -88 18 -100 5 -12 12 -53 16 -92 3
-38 13 -101 21 -139 21 -100 25 -183 11 -194 -7 -5 -41 -15 -77 -21 -36 -7
-105 -24 -153 -39 l-89 -26 -51 -75 c-57 -86 -157 -209 -212 -261 -20 -19 -53
-59 -72 -87 -40 -60 -225 -233 -307 -287 -31 -20 -80 -51 -108 -70 -29 -19
-73 -55 -98 -80 -35 -36 -60 -50 -112 -66 -37 -12 -136 -56 -220 -99 -157 -80
-240 -114 -364 -150 -40 -12 -105 -41 -145 -65 -125 -73 -330 -183 -412 -221
-83 -38 -235 -135 -327 -209 -138 -110 -284 -280 -321 -374 -20 -49 -23 -77
-24 -192 -1 -84 -6 -146 -14 -165 -7 -16 -30 -120 -51 -230 -22 -110 -59 -299
-84 -420 -94 -466 -115 -638 -122 -995 -4 -243 -8 -282 -40 -475 -19 -115 -46
-257 -59 -315 -52 -224 -73 -331 -99 -490 -43 -276 -55 -377 -66 -579 -11
-190 -9 -247 11 -462 10 -104 10 -108 -25 -250 -48 -194 -67 -410 -50 -556 l7
-53 2053 0 2054 0 -6 87 c-8 130 -40 538 -68 858 -8 94 -19 269 -25 390 -22
436 -25 403 38 364 18 -11 36 -18 39 -15 9 10 -31 48 -64 62 l-32 13 -6 208
c-4 114 -12 276 -17 358 -24 353 -28 744 -9 892 0 1 6 0 14 -3 18 -7 23 2 30
51 l6 40 -14 -29 c-13 -29 -14 -29 -25 -8 -6 11 -11 50 -11 87 0 71 3 75 73
90 46 10 238 146 271 192 33 48 38 93 13 121 -27 30 -20 44 40 87 30 22 62 50
70 62 18 27 110 86 123 78 5 -3 -9 -38 -29 -78 -21 -39 -55 -115 -75 -167 -20
-52 -50 -126 -67 -165 -42 -96 -69 -184 -58 -190 16 -10 58 7 72 29 8 12 33
28 55 34 49 15 269 188 344 272 97 107 129 204 92 281 -27 55 -53 77 -111 94
-50 15 -61 15 -135 0 -97 -20 -164 -47 -200 -82 -26 -25 -26 -25 -33 -4 -24
76 -122 105 -262 77 -88 -17 -163 -55 -163 -81 0 -13 -45 -56 -77 -73 -9 -5
-13 -14 -9 -21 7 -11 68 17 126 61 17 12 33 19 37 15 6 -7 -71 -207 -107 -277
l-18 -35 -11 28 c-6 16 -11 34 -11 40 0 7 -20 55 -44 107 -66 142 -106 246
-106 275 0 14 -9 45 -19 68 -47 104 -60 141 -107 317 -28 104 -170 433 -194
450 -15 11 -60 106 -60 128 0 12 -10 48 -21 80 -93 250 -142 407 -155 492 -8
52 -18 106 -23 120 -15 39 -31 127 -31 168 0 37 1 37 18 16 9 -12 27 -27 40
-33 19 -10 22 -9 22 6 -1 18 -12 74 -25 123 -3 14 -6 37 -6 53 0 15 -5 27 -11
27 -6 0 -8 13 -3 36 3 20 1 67 -6 105 -16 92 2 211 37 238 13 11 24 23 24 28
0 4 11 24 24 43 16 25 22 44 19 67 -3 17 0 39 6 50 10 17 10 17 11 -3 0 -11
15 -45 34 -76 142 -237 457 -535 683 -648 48 -23 113 -55 143 -71 86 -42 211
-76 183 -48 -6 6 -17 11 -24 13 -20 3 -56 25 -41 26 16 0 15 38 -4 113 -28
113 -48 167 -60 167 -40 0 -68 132 -38 178 14 21 14 26 -2 43 -9 10 -23 19
-30 19 -22 0 -53 67 -55 122 -2 39 -8 57 -23 70 -17 14 -20 29 -21 108 0 80
-3 94 -21 109 -17 13 -19 22 -12 46 9 30 6 75 -7 106 -4 11 3 26 19 42 20 20
26 36 26 72 0 25 -4 45 -10 45 -5 0 -10 5 -10 10 0 17 22 11 41 -12 11 -11 19
-16 19 -10 0 20 18 13 50 -18 17 -16 35 -30 40 -30 5 0 13 -12 16 -27 4 -15
14 -34 21 -42 8 -8 32 -42 54 -77 25 -39 45 -61 53 -58 12 5 56 -43 56 -61 0
-9 27 -35 36 -35 3 0 14 9 24 20 17 19 17 19 40 -5 21 -23 24 -23 52 -9 17 9
26 20 22 26 -4 6 -8 34 -10 62 -4 99 -12 115 -55 122 -42 7 -63 23 -32 25 10
1 21 1 26 0 4 0 7 3 7 7 0 4 9 8 20 8 11 0 20 -6 20 -12 0 -12 48 -26 88 -25
81 2 100 6 90 18 -6 7 -23 13 -39 13 -15 0 -44 8 -63 18 -34 16 -47 32 -26 32
22 0 8 20 -17 26 -16 4 -34 11 -40 17 -7 5 -28 6 -48 3 -29 -6 -38 -3 -57 20
-41 48 -49 54 -73 54 -22 0 -38 23 -34 46 1 5 1 21 0 36 -1 22 -7 27 -40 33
-41 7 -69 41 -63 77 2 10 -1 18 -6 18 -5 0 -15 14 -22 30 -7 17 -17 30 -22 30
-5 0 -5 8 1 18 5 10 7 38 4 61 -5 37 -11 46 -35 55 -17 6 -28 18 -28 29 0 10
4 16 9 12 5 -3 13 0 17 6 10 17 5 132 -7 140 -6 3 -7 17 -4 31 4 15 2 29 -4
32 -19 12 -12 24 14 24 14 -1 29 2 32 6 3 3 -2 32 -12 65 -9 32 -14 64 -11 70
4 6 3 11 -3 11 -5 0 -11 15 -13 33 -2 27 -8 33 -30 35 -25 3 -41 22 -19 22 5
0 14 14 21 30 7 17 17 30 22 30 5 0 14 -13 19 -30 8 -22 17 -30 34 -30 52 0
31 72 -26 92 -18 6 -29 17 -29 29 0 11 -7 19 -18 19 -9 0 -23 9 -30 20 -7 12
-8 20 -2 20 5 0 10 15 10 33 0 29 -4 33 -40 45 -22 6 -53 12 -70 12 -20 0 -30
5 -30 15 0 8 5 15 10 15 6 0 10 9 10 20 0 11 -5 20 -11 20 -8 0 -10 20 -7 65
6 65 -3 88 -25 66 -25 -25 -37 -12 -37 43 0 46 -3 56 -21 61 -19 6 -19 8 -3
19 24 18 64 8 64 -15 0 -11 5 -19 10 -19 11 0 13 30 4 54 -3 9 -12 16 -20 16
-10 0 -14 13 -14 41 0 36 2 41 20 36 15 -4 20 0 21 16 0 13 3 16 6 9 3 -9 14
2 30 29 18 32 23 52 18 75 -5 31 -5 32 40 38 25 4 45 11 45 16 0 5 9 12 20 15
12 4 19 14 18 23 -2 12 5 17 22 18 14 1 32 4 40 7 8 3 29 9 45 14 19 6 31 17
33 31 3 17 10 22 34 22 17 0 39 -7 49 -16 16 -14 20 -14 45 3 16 10 31 17 34
16 3 -1 4 5 2 13 -2 11 3 13 25 8 15 -4 31 -11 34 -17 4 -5 14 -5 26 2 22 11
316 8 345 -4 24 -10 12 -25 -19 -25 -15 0 -52 -6 -82 -14 -31 -8 -78 -19 -106
-24 -148 -29 -242 -73 -319 -147 -31 -30 -63 -55 -71 -55 -8 0 -15 -6 -15 -14
0 -13 45 -19 148 -19 20 0 32 -6 32 -14 0 -20 60 -16 76 5 13 16 13 16 14 -1
0 -10 4 -16 9 -12 5 3 12 1 15 -4 8 -13 86 -7 114 8 14 7 29 8 40 3 18 -9 115
-7 131 3 6 3 33 3 60 -1 36 -5 48 -10 44 -20 -4 -11 9 -14 61 -14 64 0 66 -1
56 -20 -6 -11 -8 -25 -5 -30 8 -13 38 -13 52 1 16 16 28 -28 13 -46 -9 -11 -7
-18 9 -34 l21 -21 0 23 c0 27 21 77 33 77 5 0 17 -5 29 -11 24 -13 65 -5 65
13 0 9 -12 12 -40 9 -27 -2 -38 0 -33 8 4 6 13 11 21 11 7 0 15 6 18 13 3 9 8
9 21 -2 13 -11 22 -11 41 -3 21 10 27 9 37 -8 7 -11 19 -20 27 -20 11 0 11 -3
1 -15 -7 -9 -9 -26 -5 -45 5 -23 2 -37 -10 -50 -16 -18 -16 -21 6 -51 l22 -32
22 42 c17 35 23 40 33 29 9 -11 5 -21 -18 -46 -33 -37 -34 -37 -52 -18 -24 23
-57 29 -64 12 -3 -9 -12 -16 -20 -16 -7 0 -22 -21 -33 -46 -11 -25 -35 -64
-52 -85 -28 -35 -33 -51 -41 -132 -8 -83 -7 -93 9 -107 10 -8 18 -19 18 -25 1
-26 41 -86 61 -91 12 -3 28 -19 34 -35 7 -15 17 -27 23 -26 6 1 13 -8 15 -20
3 -18 -2 -23 -17 -23 -11 0 -22 -4 -26 -10 -4 -6 -15 -6 -31 0 -33 13 -34 13
-34 -5 0 -24 -22 -65 -36 -65 -16 0 -6 -41 15 -57 13 -10 18 -9 29 4 11 15 12
15 12 1 0 -9 -7 -23 -15 -30 -32 -29 -45 -38 -53 -38 -6 0 -12 -11 -14 -24 -4
-19 0 -25 19 -29 13 -2 26 0 29 4 3 5 14 9 25 9 12 0 19 7 19 20 0 22 19 27
37 9 15 -15 33 -3 33 21 0 10 8 23 18 29 16 9 16 10 -2 17 -12 5 -23 2 -30 -8
-6 -8 -17 -13 -23 -11 -10 4 -9 11 2 34 13 24 22 29 50 29 19 0 35 5 35 11 0
6 8 8 19 4 26 -8 38 15 16 31 -16 12 -12 13 29 11 35 -1 46 -6 46 -18 0 -28
29 -31 36 -4 4 17 19 29 51 41 l45 17 -7 46 c-6 44 -6 45 10 24 9 -13 27 -23
40 -23 15 0 29 -9 36 -22 7 -13 17 -26 23 -30 17 -12 64 -9 72 3 3 6 15 9 25
6 12 -3 19 0 19 9 0 8 10 14 25 14 14 0 25 5 25 12 0 9 3 9 12 0 7 -7 18 -12
25 -12 20 0 15 34 -7 50 -11 8 -20 24 -20 36 0 12 -6 24 -12 27 -10 3 -8 12 5
36 18 31 18 31 -5 31 -33 -1 -80 -42 -72 -63 3 -9 15 -17 26 -17 17 0 18 -3 8
-15 -14 -17 -50 -20 -50 -5 0 7 -7 7 -21 0 -16 -9 -24 -8 -39 5 -15 14 -21 14
-39 3 -18 -11 -23 -11 -31 2 -5 8 -10 25 -10 37 0 51 -116 88 -185 59 -19 -8
-42 -22 -51 -30 -34 -35 -134 -28 -134 8 0 9 17 32 38 53 29 30 43 37 68 35
23 -2 39 5 62 26 18 17 32 36 32 44 0 10 15 14 55 14 44 1 61 6 81 25 40 37
48 59 29 73 -13 9 -14 19 -7 53 11 47 8 53 -25 53 -18 0 -23 5 -23 27 0 25 0
26 -20 8 -19 -18 -20 -17 -20 3 0 11 -5 24 -11 28 -6 3 -9 19 -7 35 3 21 -2
35 -19 51 -15 14 -23 33 -23 55 0 36 -11 40 -50 18 -37 -21 -42 -19 -34 21 6
30 4 36 -15 41 -11 3 -21 12 -21 20 0 11 7 13 23 10 12 -4 28 -3 34 1 13 8 6
52 -8 52 -5 0 -9 16 -9 35 0 32 -2 35 -30 35 -28 0 -30 2 -30 41 l0 40 -37 -3
c-28 -2 -39 -8 -41 -22 -2 -10 0 -16 6 -12 16 9 23 -52 9 -82 -6 -15 -21 -34
-32 -43 -16 -14 -17 -19 -7 -32 10 -12 10 -16 -4 -21 -8 -3 -26 -6 -38 -6 -19
0 -22 4 -18 30 2 18 -4 51 -16 79 -12 26 -24 66 -28 88 -3 22 -17 52 -30 66
-13 15 -24 28 -24 31 0 2 30 6 68 8 50 2 70 -1 79 -12 9 -10 12 -11 13 -2 0 6
12 12 28 12 36 0 71 23 52 35 -7 4 -30 8 -52 8 -37 0 -38 0 -22 18 15 17 15
23 4 44 -7 13 -19 26 -28 30 -8 3 -177 8 -376 11 -234 4 -366 10 -374 17 -10
8 -12 7 -10 -4 2 -8 -3 -12 -12 -10 -8 2 -44 5 -78 7 -35 2 -70 8 -78 15 -9 7
-14 31 -14 65 l0 54 -40 -6 c-31 -5 -40 -3 -40 8 0 17 -39 37 -57 31 -7 -3
-13 -13 -13 -24 0 -10 -5 -19 -11 -19 -15 0 -2 68 17 87 8 8 14 24 14 35 0 14
5 18 15 14 11 -4 21 8 36 39 12 25 26 45 31 45 6 0 36 10 68 22 41 16 61 31
69 50 8 18 23 29 44 33 18 4 40 14 49 22 12 10 26 13 49 8 19 -4 29 -3 26 3
-7 11 66 44 103 46 14 1 35 7 47 14 12 7 32 12 45 12 13 0 50 9 83 21 32 11
68 21 79 22 12 0 26 4 31 8 14 10 88 28 185 44 41 7 105 20 141 28 126 29 265
40 524 41 l260 1 80 -33 79 -33 18 23 c16 21 49 117 62 179 3 15 1 51 -5 80
-6 30 -12 67 -14 83 -3 15 -20 56 -38 90 -19 34 -39 88 -45 121 -7 33 -15 73
-18 89 -6 27 -5 29 16 23 13 -3 33 -1 44 5 12 7 28 12 36 13 74 6 115 40 125
104 4 20 12 52 19 71 13 37 10 110 -5 110 -5 0 -9 8 -9 18 0 10 -6 26 -14 37
-8 12 -15 57 -18 112 -4 90 -5 92 -43 135 -22 23 -42 43 -45 43 -13 1 -30 17
-24 26 3 5 10 7 15 4 32 -21 -17 68 -52 93 -39 27 -92 52 -111 52 -22 0 -98
67 -98 86 0 23 -44 64 -75 68 -16 3 -41 7 -55 11 -48 12 -55 13 -69 14 -7 1
-11 7 -7 16 4 12 -4 15 -40 15 -37 0 -47 -4 -51 -20 -7 -27 -27 -25 -43 5 -7
13 -21 27 -31 30 -34 11 -109 -7 -152 -36 -50 -34 -55 -34 -76 -11 -36 39 -82
62 -135 68 -39 5 -56 3 -56 -5 0 -16 -37 -14 -43 3 -9 22 -56 29 -83 11 -31
-20 -53 -19 -89 5 -36 24 -54 25 -83 4z m808 -963 c6 -11 10 -87 10 -175 0
-103 4 -157 11 -162 6 -3 55 -6 108 -5 146 3 200 -25 93 -47 -73 -15 -119 -15
-128 -1 -4 6 -20 9 -39 6 -49 -8 -77 15 -74 61 1 21 2 95 1 165 -2 116 -4 128
-19 125 -12 -2 -20 -16 -24 -43 -3 -22 -16 -62 -29 -90 -12 -27 -30 -68 -40
-90 -10 -22 -26 -61 -35 -87 -10 -27 -24 -48 -31 -48 -14 0 -84 129 -84 155 0
8 -2 15 -5 15 -9 0 -50 -44 -62 -67 -6 -12 -16 -28 -22 -35 -6 -7 -22 -29 -34
-48 -26 -39 -67 -53 -67 -23 0 11 -5 24 -10 29 -8 8 -4 35 11 90 12 43 30 108
39 144 14 50 22 66 38 68 18 3 19 -2 17 -50 -1 -29 -14 -86 -29 -126 -43 -116
-28 -110 73 27 25 34 49 61 54 61 7 0 44 -75 60 -122 7 -20 27 -24 27 -6 0 16
61 149 77 169 7 8 13 25 13 37 0 25 55 92 76 92 7 0 18 -9 24 -19z m-541 -30
c25 -2 81 -73 81 -104 0 -36 -46 -118 -97 -173 -36 -39 -140 -112 -211 -148
-18 -10 -46 -32 -62 -49 -16 -18 -32 -28 -36 -24 -10 10 20 108 78 257 25 63
42 119 38 123 -12 13 -100 -49 -148 -103 l-44 -50 23 -19 c23 -19 23 -20 7
-55 -24 -49 -87 -116 -110 -116 -10 0 -30 -7 -44 -16 -35 -24 -41 -10 -8 18
72 58 104 96 104 122 0 14 -2 26 -4 26 -17 0 -153 -63 -167 -77 -16 -17 -59
-122 -59 -144 0 -6 9 -8 20 -4 30 10 24 -2 -10 -20 -16 -9 -30 -22 -30 -31 0
-19 -29 -64 -42 -64 -5 0 -8 6 -7 13 1 6 -1 19 -5 28 -4 9 0 34 9 55 9 22 26
66 36 99 11 33 34 95 50 137 17 42 29 82 28 87 -2 6 -24 -2 -49 -19 -24 -16
-46 -27 -48 -25 -8 8 57 78 104 111 77 55 204 87 204 52 0 -6 11 -7 25 -4 14
4 33 1 43 -5 16 -10 27 -5 76 34 88 72 141 96 206 91 19 -2 41 -3 49 -3z
m-378 -1788 c7 -27 15 -54 17 -62 3 -11 -5 -13 -39 -7 -78 11 -199 40 -199 47
0 4 12 14 26 24 19 12 29 14 39 5 10 -8 18 -6 32 9 16 17 39 24 94 30 12 1 21
-13 30 -46z m-725 -2798 c-3 -9 0 -15 10 -15 23 0 104 -87 110 -119 5 -24 2
-29 -18 -34 -63 -18 -117 3 -164 62 -15 19 -20 36 -16 63 3 32 8 38 41 46 20
6 38 10 40 11 2 1 1 -6 -3 -14z m761 -2151 c25 -26 30 -39 24 -52 -5 -9 -14
-35 -20 -58 -17 -65 -71 -127 -143 -164 -35 -18 -82 -52 -106 -76 -60 -62 -81
-58 -57 12 46 132 104 245 174 340 30 42 36 45 65 40 17 -4 45 -22 63 -42z
m-479 8 c12 -7 22 -21 22 -30 0 -37 -95 -119 -175 -150 -27 -11 -58 -23 -67
-27 -13 -5 -18 -2 -18 9 0 21 87 208 100 216 15 9 112 -4 138 -18z m-85 -281
c19 -19 -5 -59 -61 -104 -67 -52 -197 -121 -212 -112 -18 11 -10 48 26 122 28
56 41 73 58 73 11 1 44 9 71 20 49 19 100 19 118 1z"/>
<path d="M6167 10676 c-8 -8 -20 -29 -27 -48 -7 -18 -28 -71 -47 -118 -19 -47
-37 -103 -39 -124 -5 -35 -3 -38 10 -26 9 7 16 19 16 26 0 8 10 14 24 14 27 0
43 16 24 23 -12 4 24 40 116 119 23 19 31 36 36 76 4 31 2 56 -4 62 -15 15
-92 12 -109 -4z"/>
<path d="M5758 10570 c-18 -11 -74 -148 -64 -158 11 -11 97 40 144 85 58 55
55 77 -13 80 -28 2 -57 -2 -67 -7z"/>
<path d="M7410 9510 c0 -8 -17 -9 -54 -5 -42 6 -60 3 -78 -9 -12 -9 -35 -16
-49 -16 -15 0 -29 -4 -31 -9 -1 -5 -22 -11 -45 -14 -23 -2 -50 -10 -60 -19
-19 -16 -64 -29 -100 -29 -58 1 -173 -85 -173 -130 0 -20 35 -28 42 -9 2 7 14
6 33 -1 l31 -12 -63 -62 c-70 -69 -82 -97 -30 -68 17 10 34 21 35 26 2 4 10 7
18 7 25 0 14 -14 -46 -60 -58 -44 -79 -75 -56 -83 6 -2 22 0 35 5 14 5 54 9
90 9 36 -1 73 -1 81 -1 8 0 44 -4 80 -9 102 -15 132 -7 180 50 23 27 38 53 35
59 -4 6 10 10 33 10 25 0 49 7 63 20 24 19 24 19 3 20 -26 0 -77 49 -70 66 12
31 -123 57 -205 39 -16 -4 -29 -3 -29 2 0 11 211 123 288 152 51 19 62 27 62
47 0 12 -4 26 -10 29 -5 3 -10 1 -10 -5z m-335 -350 c6 -4 17 -10 26 -13 13
-4 16 0 13 16 -3 14 0 12 7 -6 8 -20 16 -27 28 -22 9 4 32 9 51 12 l35 6 -20
-24 c-11 -13 -20 -25 -21 -27 -1 -2 -21 -5 -45 -8 -24 -3 -49 -12 -56 -21 -10
-13 -25 -15 -75 -10 -35 3 -80 11 -102 17 l-38 12 36 24 c20 14 36 29 36 33 0
5 9 7 20 4 14 -4 20 0 20 10 0 13 8 15 38 10 20 -3 42 -9 47 -13z"/>
<path d="M4035 9109 c-19 -29 63 -312 117 -407 32 -56 49 -64 28 -13 -13 32
-5 157 11 167 5 3 9 18 9 34 0 16 5 32 10 35 6 3 10 17 10 31 0 13 -4 24 -10
24 -5 0 -10 7 -10 15 0 17 32 20 61 5 10 -6 19 -7 19 -3 0 4 -22 20 -49 35
-26 15 -54 34 -61 43 -7 9 -29 15 -51 15 -20 0 -44 7 -53 15 -17 18 -23 19
-31 4z"/>
<path d="M6124 7873 l-46 -48 5 40 c3 22 3 34 0 28 -2 -7 -13 -13 -24 -13 -10
0 -19 -6 -19 -14 0 -32 -45 -115 -65 -119 -19 -4 -19 -4 1 -6 11 0 31 10 44
24 13 14 33 25 44 25 15 0 17 -3 8 -12 -7 -7 -12 -17 -12 -22 0 -12 45 -36 66
-36 21 0 38 31 42 76 4 50 -15 61 -24 14 -4 -16 -10 -30 -15 -30 -14 0 -10 21
13 69 l22 45 19 -45 c11 -27 17 -56 13 -76 -6 -42 2 -41 43 2 29 32 32 40 26
73 -9 48 -14 55 -29 43 -10 -8 -18 -5 -31 9 -10 11 -22 20 -26 20 -5 0 -29
-21 -55 -47z"/>
<path d="M7075 7754 c-11 -2 -50 -6 -87 -9 -46 -5 -78 -14 -101 -29 -39 -27
-81 -37 -152 -36 -206 1 -239 0 -248 -9 -6 -6 -34 -11 -61 -12 -72 -1 -208
-22 -230 -35 -31 -18 -13 -48 24 -40 22 4 30 2 30 -9 0 -9 17 -19 45 -26 25
-6 45 -15 45 -20 0 -5 14 -9 30 -9 17 0 30 -5 30 -11 0 -17 90 -53 103 -40 6
6 21 11 34 11 16 0 27 8 33 26 9 22 7 30 -14 49 -20 18 -22 26 -13 34 23 18
100 31 197 31 79 0 99 4 120 20 14 11 39 20 55 20 17 0 59 14 93 31 35 17 70
28 78 25 20 -8 54 11 54 29 0 14 -17 17 -65 9z"/>
<path d="M6685 7418 c-55 -4 -108 -13 -117 -18 -10 -6 -25 -10 -33 -10 -8 0
-15 -9 -15 -20 0 -13 7 -20 20 -20 22 0 27 -15 8 -23 -10 -4 -10 -6 0 -6 6 -1
12 -8 12 -16 0 -10 10 -15 29 -15 29 0 54 17 64 42 4 10 8 10 15 -1 5 -7 14
-11 19 -8 5 3 24 -10 43 -30 l35 -36 9 47 c6 30 15 48 28 52 16 5 36 50 27 58
-12 11 -55 12 -144 4z"/>
<path d="M7103 7148 c-11 -24 -39 -64 -63 -90 -23 -26 -39 -51 -36 -56 6 -10
99 -114 138 -154 14 -16 22 -28 17 -28 -5 0 -23 14 -39 30 -16 17 -34 30 -40
30 -6 0 -8 5 -4 12 4 7 3 8 -5 4 -6 -4 -9 -11 -6 -16 3 -5 1 -11 -4 -14 -10
-6 -3 -93 10 -117 12 -24 0 -30 -22 -11 -10 9 -19 28 -20 42 0 14 -6 41 -13
60 l-13 35 -7 -40 c-3 -22 -2 -96 4 -165 5 -69 10 -163 10 -210 0 -48 4 -90 9
-95 13 -13 17 -104 6 -129 -7 -15 -5 -17 13 -12 11 4 23 2 27 -4 3 -5 -1 -10
-9 -10 -9 0 -16 -4 -16 -10 0 -5 9 -10 20 -10 11 0 20 -5 20 -10 0 -6 -10 -8
-23 -5 -25 7 -50 -13 -45 -36 2 -7 -3 -13 -10 -14 -8 0 -19 -8 -26 -17 -7 -10
-23 -18 -35 -18 -12 0 -21 -6 -21 -14 0 -8 -9 -18 -20 -21 -11 -3 -20 -11 -20
-16 0 -5 -7 -9 -15 -9 -8 0 -29 -6 -47 -14 -18 -8 -60 -25 -93 -37 -33 -12
-78 -31 -101 -41 -22 -10 -46 -18 -52 -18 -7 0 -12 -4 -12 -10 0 -5 -10 -10
-22 -11 -13 0 -17 -3 -10 -6 13 -5 145 37 184 58 10 5 25 9 34 9 9 0 33 8 53
19 20 10 68 33 106 51 223 104 355 241 448 470 14 36 29 81 33 100 10 55 15
56 43 2 31 -60 108 -172 119 -172 4 0 9 -14 10 -31 1 -17 11 -49 22 -70 10
-22 22 -54 26 -72 3 -17 15 -52 26 -77 11 -25 24 -65 29 -90 5 -25 16 -76 24
-115 24 -104 29 -321 15 -580 -17 -300 -22 -1073 -8 -1139 8 -39 8 -50 -3 -58
-11 -7 -11 -11 -1 -15 13 -5 17 -94 5 -106 -3 -4 -7 -22 -9 -39 -1 -18 -7 -62
-14 -96 -14 -69 -2 -119 24 -109 10 4 15 -8 20 -46 9 -77 9 -197 0 -236 -6
-30 -8 -32 -20 -17 -10 14 -13 1 -19 -80 -8 -105 4 -290 36 -569 26 -227 28
-288 34 -950 3 -314 7 -608 10 -655 3 -47 10 -161 15 -255 6 -93 15 -224 20
-290 5 -66 12 -167 15 -225 3 -58 13 -136 22 -174 10 -45 14 -91 10 -135 -3
-40 -2 -58 3 -46 7 16 9 17 9 3 1 -9 -3 -19 -8 -22 -16 -10 -19 -57 -4 -72 10
-9 13 -24 9 -39 l-6 -25 1546 0 1546 0 -7 66 c-10 95 -108 450 -150 546 -77
176 -78 179 -80 353 -1 149 -5 176 -49 395 -27 129 -61 269 -76 311 -45 122
-63 231 -52 314 12 92 -1 205 -44 385 -34 140 -35 153 -39 375 -4 237 -20 415
-55 615 -39 220 -50 285 -60 370 -28 248 -83 548 -120 660 -72 220 -92 286
-114 365 -52 197 -59 222 -81 265 -12 25 -26 65 -29 90 -4 25 -12 61 -19 80
-6 19 -10 41 -8 48 11 57 -215 255 -391 342 -46 23 -101 59 -123 80 -46 43
-391 278 -463 314 -26 13 -75 32 -107 41 -98 29 -155 65 -260 165 -116 111
-208 177 -355 250 -58 29 -117 61 -131 71 -14 10 -68 36 -119 59 -52 22 -106
51 -120 64 -14 13 -41 32 -60 41 -19 10 -53 32 -75 50 -22 18 -71 52 -110 77
-38 25 -110 81 -158 124 -193 173 -318 274 -340 274 -7 0 -22 -19 -34 -42z
m105 -423 c36 -42 55 -86 45 -111 -3 -9 1 -14 13 -14 11 0 27 -7 37 -14 18
-14 23 -46 7 -46 -14 0 -12 -27 3 -33 6 -3 2 -6 -10 -6 -25 -1 -30 -20 -11
-39 9 -9 7 -13 -5 -17 -9 -3 -25 -7 -34 -11 -13 -4 -14 -7 -5 -13 8 -4 11 -19
8 -34 -5 -28 -72 -118 -111 -149 l-25 -19 0 25 c0 18 -6 26 -17 27 -15 0 -15
2 3 11 15 7 20 16 16 34 -4 21 -9 25 -36 22 -23 -2 -30 1 -27 12 12 38 12 130
0 177 -9 39 -9 59 -1 75 9 20 11 17 11 -24 1 -73 17 -57 31 30 8 55 9 85 1
105 -9 22 -8 27 4 27 9 0 16 -10 16 -22 1 -18 2 -19 6 -5 3 10 -2 29 -11 42
-17 26 -21 57 -9 69 4 4 21 -7 37 -26 16 -18 44 -51 64 -73z"/>
<path d="M6630 3996 c-83 -81 -116 -118 -165 -186 -21 -30 -56 -75 -77 -99
-22 -25 -51 -66 -65 -93 -40 -73 -53 -64 -54 40 -1 48 0 97 1 110 1 12 -5 25
-13 28 -19 7 -129 -95 -206 -191 -36 -45 -57 -64 -59 -54 -1 8 27 75 63 147
36 73 65 143 65 156 0 13 15 54 34 92 19 38 34 70 32 71 -1 2 -14 -3 -28 -9
-21 -10 -47 -56 -121 -213 -100 -210 -141 -311 -132 -325 3 -5 1 -19 -4 -33
-6 -16 -6 -28 1 -35 15 -15 124 83 213 192 39 47 75 86 80 86 7 0 11 -43 12
-112 3 -145 11 -208 28 -208 7 0 15 7 19 15 11 30 235 361 294 435 37 46 56
78 49 82 -15 9 10 38 28 32 8 -4 20 7 31 28 9 18 22 40 29 48 16 20 29 60 18
60 -4 0 -37 -29 -73 -64z"/>
<path d="M6720 4035 c-5 -14 -10 -34 -10 -42 0 -9 -15 -60 -34 -112 -19 -53
-51 -150 -72 -216 -21 -66 -49 -147 -63 -180 -15 -33 -25 -72 -23 -87 3 -28 4
-28 74 -28 54 0 74 -4 83 -16 10 -15 20 -15 96 -4 46 7 111 16 144 20 111 14
158 41 96 55 -17 4 -31 12 -31 19 0 8 -10 11 -30 8 -19 -3 -30 -10 -30 -21 0
-12 -2 -13 -8 -3 -6 9 -47 11 -171 8 -119 -3 -163 -1 -166 7 -3 7 14 62 36
122 70 192 150 446 147 468 -5 31 -26 32 -38 2z"/>
</g>
</svg>
